<svg id="Layer_1" data-name="Layer 1" xmlns="http://www.w3.org/2000/svg" viewBox="0 0 366.63 157.45"><defs><style>.cls-1{fill:#086972;}.cls-2{fill:#4ec1be;}</style></defs><path class="cls-1" d="M459.42,393.12h9.74c9.65,0,19.32-.27,29,.05,18,.59,33.43,6.85,43.17,22.86,12.57,20.67,10.53,57.2-19.18,71.72a52.76,52.76,0,0,1-22.24,5.45c-12.74.27-25.48.07-38.22.05a17.29,17.29,0,0,1-2.24-.28Zm21.48,80.23c5.89,0,11.44.18,17,0,13-.51,23.25-8.6,26.06-21.25a51.76,51.76,0,0,0,.59-15.53c-1.07-11.9-9.78-21.29-21.61-22.7-7.16-.85-14.5-.15-22-.15Z" transform="translate(-459.39 -393.01)"/><path class="cls-1" d="M826,493.23c-7.42,0-14.39.08-21.35-.1-.81,0-1.91-1.37-2.3-2.34q-3.08-7.71-5.81-15.56c-.61-1.75-1.55-2.29-3.37-2.28q-18.81.12-37.62,0a2.92,2.92,0,0,0-3.3,2.32c-1.77,5.14-3.8,10.19-5.56,15.33-.67,1.93-1.58,2.77-3.74,2.72-6.45-.14-12.9-.05-19.92-.05,1.47-3.91,2.73-7.34,4-10.73q16.6-42.92,33.15-85.85c1-2.73,2.33-3.76,5.29-3.65,6.46.25,13,.13,19.42,0,1.75,0,2.77.42,3.45,2.19q18.4,47.84,36.91,95.61C825.52,491.45,825.65,492,826,493.23Zm-37.93-40-13.8-36.91-13.71,36.91Z" transform="translate(-459.39 -393.01)"/><path class="cls-1" d="M736.07,393.34c-1.6,3.47-3,6.61-4.5,9.74Q710.33,448.4,689,493.68a5.35,5.35,0,0,1-2.88,2.56c-1.94.64-2.5-1.13-3.16-2.56l-45.19-97.53c-.37-.8-.62-1.66-1.13-3h8.93c4.11,0,8.23.14,12.34-.06,2.25-.11,3.22.8,4.06,2.76q11,25.6,22.18,51.14c.57,1.31,1.2,2.6,2.07,4.48,1.81-4,3.43-7.61,5-11.2,6.58-14.83,13.2-29.64,19.67-44.51a3.78,3.78,0,0,1,4.15-2.66c6,.14,11.93,0,17.89.06C733.83,393.13,734.71,393.24,736.07,393.34Z" transform="translate(-459.39 -393.01)"/><path class="cls-2" d="M596,412.33c-10,0-19.91-.06-29.86.05-2.37,0-3.31-.64-3.22-3.12.15-4.41.11-8.83,0-13.25-.05-2,.78-2.68,2.72-2.68q30.5.06,61,0c2.09,0,3,.68,2.92,2.85-.11,4.42-.13,8.84,0,13.25.08,2.36-.83,3-3.06,2.95C616.34,412.28,606.18,412.33,596,412.33Z" transform="translate(-459.39 -393.01)"/><path class="cls-2" d="M596.15,452.56c-10,0-19.92-.07-29.88,0-2.52,0-3.46-.74-3.35-3.32.18-4.21.13-8.43,0-12.64-.06-2.16.8-2.88,2.89-2.87q30.49.06,61,0c2,0,2.74.77,2.71,2.74-.08,4.32-.14,8.64,0,12.95.09,2.47-.84,3.17-3.22,3.15C616.28,452.5,606.22,452.56,596.15,452.56Z" transform="translate(-459.39 -393.01)"/><path class="cls-2" d="M596,492.82c-9.86,0-19.72-.08-29.58.05-2.7,0-3.63-.82-3.51-3.53.2-4.1.16-8.22,0-12.33-.08-2.32.82-3,3.05-3q30.35.09,60.69,0c2.11,0,2.94.67,2.88,2.83-.12,4.21-.15,8.43,0,12.64.1,2.58-.85,3.39-3.37,3.36C616.13,492.76,606.06,492.82,596,492.82Z" transform="translate(-459.39 -393.01)"/><path class="cls-1" d="M623.76,512.82c1.11.76,2.55,1.28,3.28,2.31,3.16,4.51,6.12,9.17,9.36,14.08,3.18-4.87,6.05-9.47,9.15-13.9.68-1,2.21-1.33,3.34-2a10.59,10.59,0,0,1,1.07,3.15c.09,7.51.1,15,0,22.53,0,.9-1,1.78-1.48,2.68-.44-.87-1.25-1.72-1.27-2.59-.1-6.75-.06-13.51-.06-21.19l-10.7,16.21-10.34-15.6-.6.2v18.37a10.09,10.09,0,0,1,0,2.46,9.64,9.64,0,0,1-1.12,2.09c-.52-.69-1.48-1.37-1.49-2.06-.13-5.76-.08-11.53-.08-17.29v-8.57Z" transform="translate(-459.39 -393.01)"/><path class="cls-1" d="M459.39,541.68V513.61c4.64,0,9.2-.55,13.57.13,6.63,1,11.18,8,10.52,15-.71,7.52-5.67,12.63-12.79,12.95C467,541.81,463.33,541.68,459.39,541.68Zm2.56-26.2V531c0,9.1,0,9.1,9.05,8,5.51-.68,9-4.55,9.72-10.6.54-4.89-2.55-10.32-7.31-11.56C469.84,515.82,466,515.89,462,515.48Z" transform="translate(-459.39 -393.01)"/><path class="cls-1" d="M740.13,513.29c6.29,0,12.43,0,18.56.06.42,0,.83.84,1.24,1.3-.59.38-1.17,1.07-1.77,1.08-3.79.1-7.6,0-11.4,0h-3.84V526.3H753a21.62,21.62,0,0,1,3.69.05,8.64,8.64,0,0,1,2.34,1.23,6.66,6.66,0,0,1-2.22,1c-3.59.1-7.19.05-10.79.05h-3.34c0,3.13-.16,6,.12,8.81.06.65,1.6,1.6,2.49,1.64,4.21.19,8.43,0,12.63.18.86,0,1.69.87,2.53,1.34-.8.38-1.6,1.08-2.41,1.09-5.93.09-11.86.05-18,.05Z" transform="translate(-459.39 -393.01)"/><path class="cls-1" d="M588.85,521.78l.35,3c2.85-2.54,6-4.44,9.74-3.24a14.26,14.26,0,0,1,6,3.35c3.36,3.55,3,10.61-.3,14.22-3.71,4.08-9.44,4.09-15.58-.23,0,3.19.08,6.12,0,9,0,.74-.69,1.45-1.06,2.18-.49-.73-1.4-1.45-1.41-2.19q-.15-12,0-24.07c0-.84.92-1.68,1.42-2.52ZM597,539.54c4.68,0,7.63-3,7.67-7.75s-3.08-8.14-7.73-8.12a7.9,7.9,0,0,0-7.86,8.18A7.64,7.64,0,0,0,597,539.54Z" transform="translate(-459.39 -393.01)"/><path class="cls-1" d="M696.13,539.38c-5.32,3.78-11,3.75-14.7-.27-3.3-3.53-3.54-10.43-.5-14.29,3.45-4.39,9.18-4.73,16-.77,0-2.9-.1-5.65.06-8.38,0-.79.83-1.53,1.27-2.3.42.78,1.19,1.54,1.2,2.32q.14,11.71,0,23.44a7.43,7.43,0,0,1-1,2.48C697.71,541,697,540.28,696.13,539.38Zm-14.64-7.89c0,5.15,2.66,8,7.51,8,4.68,0,7.78-3.15,7.78-7.93a7.61,7.61,0,0,0-7.53-8C684.46,523.55,681.51,526.54,681.49,531.49Z" transform="translate(-459.39 -393.01)"/><path class="cls-1" d="M723.94,532.84h-17c.29,6,7,8.66,12.58,5.26a5.6,5.6,0,0,1,3-.68c-2.36,4.5-8.29,5.94-13.09,3.68s-6.82-7.8-5-13.1c1.73-5.09,6.86-7.72,12.64-6.49C722.07,522.59,724.62,526.57,723.94,532.84Zm-17-2.54h14.5c-.12-4.22-2.43-6.49-6.56-6.68C710.39,523.42,707.45,525.74,706.93,530.3Z" transform="translate(-459.39 -393.01)"/><path class="cls-1" d="M489.9,533.1c.62,6,7.65,8.26,13.13,4.86a4.39,4.39,0,0,1,2.92-.33,10.54,10.54,0,0,1-14.75,2.56c-4.36-3.08-5.49-9.63-2.48-14.33a10.59,10.59,0,0,1,14.37-3.24,10.1,10.1,0,0,1,3.42,3.77c2.52,4.88,1.49,6.49-3.88,6.49l-12,0A3.36,3.36,0,0,0,489.9,533.1Zm14.89-2.78c-.24-4.18-2.59-6.46-6.47-6.69-4.58-.27-7.41,2-8.33,6.69Z" transform="translate(-459.39 -393.01)"/><path class="cls-1" d="M533.62,532.88c.23,6,7,8.63,12.63,5.2a5.17,5.17,0,0,1,3-.57c-2.29,4.09-7.19,5.57-11.8,4.07s-7-5.11-6.81-10.46a9.82,9.82,0,0,1,7.28-9.56c6.85-1.86,12.74,2.11,13,8.64.08,2-.43,2.77-2.53,2.72C543.46,532.8,538.54,532.88,533.62,532.88Zm0-2.6h14.78c-.69-4.7-3-6.68-7.47-6.66C536.79,523.64,534.12,526,533.58,530.28Z" transform="translate(-459.39 -393.01)"/><path class="cls-1" d="M672.18,539c-5.07,4.15-10.92,4.16-14.88,0a11,11,0,0,1-.14-14.58c3.81-4.14,10-4.18,15.43.09a4,4,0,0,1,.14-1.48,10.41,10.41,0,0,1,1.31-1.53c.42.48,1.18.94,1.19,1.42.09,5.75.1,11.5,0,17.25,0,.49-1,1-1.48,1.45C673.25,540.83,672.75,540,672.18,539Zm-7.49.5a7.56,7.56,0,0,0,8-7.76,7.78,7.78,0,0,0-7.8-8.11,8,8,0,0,0-8,8A7.74,7.74,0,0,0,664.69,539.54Z" transform="translate(-459.39 -393.01)"/><path class="cls-1" d="M780.69,539.35c-5.35,3.84-10.85,3.77-14.71-.35a11.07,11.07,0,0,1-.47-14.14c3.63-4.37,9.55-4.68,15.14-1l2.08-2.28a8.39,8.39,0,0,1,1.12,2.72c.11,4.93.12,9.86,0,14.79,0,.86-.89,1.69-1.36,2.54Zm.7-7.62a7.74,7.74,0,0,0-7.81-8.06,7.85,7.85,0,0,0-7.87,8.08,7.63,7.63,0,0,0,7.76,7.78C778.2,539.57,781.4,536.41,781.39,531.73Z" transform="translate(-459.39 -393.01)"/><path class="cls-1" d="M572.27,542.14a10.18,10.18,0,0,1-10.46-10.56,10.44,10.44,0,1,1,20.88.29A10.1,10.1,0,0,1,572.27,542.14Zm0-2.62a7.55,7.55,0,0,0,7.87-7.67,7.88,7.88,0,1,0-15.74,0A7.57,7.57,0,0,0,572.27,539.52Z" transform="translate(-459.39 -393.01)"/><path class="cls-1" d="M789.25,536.41c2.47,3,5.84,3.72,9.41,2.9,1.33-.31,2.39-1.84,3.57-2.82-1-1.08-1.86-2.63-3.11-3.13-2.25-.9-4.77-1.08-7.14-1.72a4.64,4.64,0,0,1-3.84-4.59,5,5,0,0,1,3.42-5,11.47,11.47,0,0,1,10.62.61c.61.35.87,1.31,1.3,2a20.39,20.39,0,0,1-2.34.13,79.86,79.86,0,0,0-8.3-.44c-.73,0-1.86,1.65-1.92,2.6-.06.75,1.08,2,1.94,2.32,2.21.75,4.58,1,6.86,1.59,2.76.69,5,2,5.12,5.26.07,2.78-1.71,4.77-5.15,5.61-4,1-7.74.47-11-2.25C787.26,538.3,787.39,537.32,789.25,536.41Z" transform="translate(-459.39 -393.01)"/><path class="cls-1" d="M826,521.94q-2.87,6.76-5.73,13.52c-1.81,4.25-3.58,8.51-5.52,12.7-.44.93-1.55,1.54-2.35,2.3l-1-.72a37.8,37.8,0,0,0,2.28-5.79,10.5,10.5,0,0,0,0-5.48c-2-5.57-4.34-11-6.56-16.48l.94-.79c.82.78,2,1.41,2.4,2.37,2,4.61,3.74,9.31,5.84,14.64,2.2-5.18,4.18-9.8,6.11-14.43C823,522.25,823.63,520.85,826,521.94Z" transform="translate(-459.39 -393.01)"/><path class="cls-1" d="M510.76,521.16c.81.81,2,1.47,2.38,2.44,2.08,4.65,4,9.39,6.17,14.7,1.51-3.62,2.54-6.82,4.15-9.69,1.36-2.44.71-6.63,5.72-7.26-2.87,6.89-5.39,13.14-8.1,19.31-.77,1.76-2.88,1.53-3.71-.4-2.58-6-5-12.07-7.56-18.11Z" transform="translate(-459.39 -393.01)"/><path class="cls-1" d="M558.1,527.83c0,3.91.07,7.82-.07,11.73,0,.71-.94,1.4-1.45,2.1-.37-.71-1.06-1.41-1.06-2.12q-.12-12,0-24.08c0-.71.69-1.41,1.06-2.11.51.71,1.42,1.41,1.45,2.13C558.17,519.6,558.1,523.71,558.1,527.83Z" transform="translate(-459.39 -393.01)"/></svg>